<svg width="97" height="97" viewBox="0 0 97 97" fill="none" xmlns="http://www.w3.org/2000/svg">
<rect x="0.333496" y="0.400024" width="96" height="96" rx="48" fill="white"/>
<path d="M66.5115 45.8707L69.56 44.6532L76.1156 61.0686L73.067 62.286L66.5115 45.8707Z" fill="#FF9F40"/>
<path d="M20.5742 61.0275L27.1298 44.6121L30.1783 45.8296L23.6228 62.2449L20.5742 61.0275Z" fill="#FFBE40"/>
<path d="M69.6617 76.3994H27.0059V43.5873H69.6617V76.3994Z" fill="#FFDF40"/>
<path d="M48.3315 43.5878H69.6595V76.4H48.3315V43.5878Z" fill="#FFBE40"/>
<path d="M46.6929 66.5554H49.9741V69.8366H46.6929V66.5554Z" fill="#665252"/>
<path d="M73.0518 40.0871H76.333V43.3683H73.0518V40.0871Z" fill="#D13465"/>
<path d="M27.0059 23.6812H30.2871V26.9624H27.0059V23.6812Z" fill="#FF525F"/>
<path d="M49.9741 63.2743H46.6928V62.5918C46.6928 59.9915 47.6654 57.7164 49.362 56.3514C49.7497 56.0373 49.9741 55.5695 49.9741 55.0712C49.9741 54.1661 49.2386 53.4306 48.3334 53.4306C47.4283 53.4306 46.6928 54.1661 46.6928 55.0712H43.4116C43.4116 52.3572 45.6194 50.1494 48.3334 50.1494C51.0474 50.1494 53.2553 52.3572 53.2553 55.0712C53.2553 56.5677 52.5872 57.9647 51.4209 58.9052C50.5011 59.6454 49.9741 60.9896 49.9741 62.5918V63.2743Z" fill="#665252"/>
<path d="M49.9743 55.0715C49.9743 55.5699 49.75 56.0376 49.3623 56.3517C48.9772 56.6615 48.6413 57.031 48.3337 57.4277V63.2746H49.9743V62.5921C49.9743 60.99 50.5014 59.6458 51.4211 58.9055C52.5875 57.965 53.2556 56.568 53.2556 55.0715C53.2556 52.3575 51.0477 50.1497 48.3337 50.1497V53.4309C49.2389 53.4309 49.9743 54.1664 49.9743 55.0715Z" fill="#4D3636"/>
<path d="M38.4899 30.2437C35.7759 30.2437 33.5681 28.0359 33.5681 25.3218C33.5681 22.6078 35.7759 20.4 38.4899 20.4C41.2039 20.4 43.4118 22.6078 43.4118 25.3218C43.4118 28.0359 41.2039 30.2437 38.4899 30.2437Z" fill="#E1E6F0"/>
<path d="M63.0993 23.6812H59.818V20.4H56.5368V23.6812H53.2556V26.9625H56.5368V30.2437H59.818V26.9625H63.0993V23.6812Z" fill="#FFBE40"/>
<path d="M26.8964 30.2437H23.6152V33.5249H20.334V36.8061H23.6152V40.0873H26.8964V36.8061H30.1776V33.5249H26.8964V30.2437Z" fill="#FFDF40"/>
<path d="M46.6897 26.9629H49.9709V36.8065H46.6897V26.9629Z" fill="#E1E6F0"/>
<path d="M34.6072 34.3615L37.4492 32.7206L40.7302 38.4034L37.8882 40.0443L34.6072 34.3615Z" fill="#E1E6F0"/>
<path d="M72.9413 30.2437H64.7382C63.1732 30.2437 61.7776 30.9786 60.8755 32.1207L60.8723 32.1182L56.0674 38.208L58.6437 40.2396L60.5771 37.7891C61.4499 39.1687 62.9882 40.0873 64.7382 40.0873C67.4522 40.0873 69.66 37.8795 69.66 35.1655C69.66 34.5903 69.56 34.0384 69.3779 33.5249H72.9413V30.2437Z" fill="#C3D0E6"/>
<path d="M48.3335 66.5557H49.9741V69.8369H48.3335V66.5557Z" fill="#4D3636"/>
<path d="M48.3335 26.9624H49.9741V36.8061H48.3335V26.9624Z" fill="#C3D0E6"/>
</svg>
