<svg width="97" height="97" viewBox="0 0 97 97" fill="none" xmlns="http://www.w3.org/2000/svg">
<rect x="0.666504" y="0.400024" width="96" height="96" rx="48" fill="white"/>
<path d="M24.6263 46.3456C22.4482 46.3456 20.9238 44.9842 20.9238 42.8062L20.9937 30.3947C20.9937 29.0547 21.3335 27.9018 22.355 27.1891C22.9938 26.7433 23.7709 26.4818 24.6091 26.4818H72.7226C74.9007 26.4818 76.6663 28.2475 76.6663 30.4255V42.8201C76.6663 43.7143 76.3688 44.539 75.8671 45.2007C75.147 46.1504 74.0426 46.4156 72.7588 46.4156C69.1414 46.4155 24.6263 46.3456 24.6263 46.3456Z" fill="#EE6161"/>
<path d="M75.9599 45.0742C75.2478 46.0962 74.0635 46.7644 72.7238 46.7644H24.6102C22.4322 46.7644 20.6665 44.9987 20.6665 42.8206V30.4261C20.6665 29.0863 21.3347 27.9021 22.3567 27.1899V42.8206C22.3567 44.0624 23.3674 45.0742 24.6102 45.0742H75.9599Z" fill="#E94444"/>
<path d="M63.0225 55.0979C63.0225 55.0979 61.2832 55.1113 60.9682 55.946V55.221C60.9682 53.9615 58.5464 53.5772 58.5464 53.5772C58.5464 53.5772 56.3679 53.9615 56.3679 55.221C56.3671 54.6109 56.3662 54.4767 56.3654 53.8665C56.3654 52.607 54.1892 52.3162 54.1892 52.3162C54.1892 52.3162 52.1111 52.2988 51.8458 53.2678V52.3162V45.9065C51.8458 44.647 49.5457 43.9317 49.5457 43.9317C49.5457 43.9317 47.6472 44.7949 47.6472 46.0544L47.2455 54.3317L46.1948 54.7313C44.6309 54.7313 43.4763 55.5698 43.4763 57.1465L43.439 60.2702C43.439 62.7009 44.4859 64.884 46.4332 66.3172L46.8838 66.6488C47.8953 67.4137 48.7384 68.4127 48.8447 69.6742C48.8592 69.8473 49.0004 69.9819 49.1741 69.9819L62.0596 69.926C62.2423 69.926 62.3904 69.7779 62.3904 69.5951C62.3904 69.1148 62.9176 69.0313 63.0223 68.5682C63.2078 67.7477 63.5534 66.9674 64.0438 66.2749C64.8113 65.1913 65.2238 63.8933 65.2238 62.562V56.7324C65.2237 55.5095 63.0225 55.0979 63.0225 55.0979Z" fill="#F1D0A5"/>
<path d="M50.359 68.5679C50.1793 68.5679 50.0169 68.4585 49.9528 68.2906C49.5315 67.1876 48.7749 66.1865 47.7609 65.4203L47.2927 65.0746C45.7976 63.9748 44.9064 62.204 44.9064 60.3356V57.1833C44.9064 56.5874 45.38 56.0847 45.9757 56.0823H45.9872H47.2474L47.9711 55.3899L47.2474 54.332H45.9872C45.7628 54.332 45.5455 54.361 45.3361 54.4108C45.3373 54.4099 45.3383 54.4088 45.3395 54.4078C44.0809 54.6921 43.1401 55.8982 43.156 57.1864V58.9368V60.3356C43.156 62.767 44.3069 65.0513 46.254 66.4851L46.7048 66.8162C47.7169 67.582 48.4652 68.7488 48.5717 70.0104C48.5864 70.1836 48.7276 70.3183 48.9014 70.3183H62.5337C62.7174 70.3183 62.8648 70.1695 62.8648 69.9871C62.8648 69.5058 62.9188 69.0303 63.0238 68.5679H50.359Z" fill="#F2BB88"/>
<path d="M51.8471 45.9054V46.9263C51.8471 46.329 51.6152 45.7852 51.2358 45.3787C50.6326 44.7323 49.5469 45.1675 49.5469 46.0517V60.2114C49.5469 60.8462 49.0323 61.3609 48.3975 61.3609C47.7626 61.3609 47.248 60.8462 47.248 60.2114V45.9054C47.248 44.6465 48.2778 43.6255 49.5468 43.6255C50.8173 43.6255 51.8471 44.6466 51.8471 45.9054Z" fill="#F2BB88"/>
<path d="M56.3678 54.8878C56.3678 54.3656 56.1909 53.8844 55.8933 53.4998C55.3287 52.7703 54.1537 53.1916 54.1537 54.1141V57.2925C54.1537 57.8115 53.7329 58.2323 53.214 58.2323H52.7825C52.2631 58.2323 51.8422 57.8108 51.8428 57.2915L51.8475 53.2672C52.113 52.2988 53.0056 51.5854 54.0675 51.5854C54.0967 51.5854 54.1259 51.5854 54.1536 51.5869C55.3847 51.632 56.3677 52.6355 56.3677 53.8667C56.3693 54.4764 56.3693 55.4975 56.3678 54.8878Z" fill="#F2BB88"/>
<path d="M60.9721 55.2204V56.2413C60.9721 55.644 60.7402 55.1003 60.3608 54.6937C59.7576 54.0473 58.6719 54.4826 58.6719 55.3667V57.3116C58.6719 57.8306 58.2512 58.2513 57.7322 58.2513H57.3172C56.7982 58.2513 56.3774 57.8306 56.3774 57.3116V55.0627C56.4377 53.8912 57.5028 52.918 58.6718 52.9404C59.9422 52.9406 60.9721 53.9615 60.9721 55.2204Z" fill="#F2BB88"/>
<path d="M65.2259 56.7315V57.7525C65.2259 56.9797 64.6306 56.2989 63.9044 55.9032C63.4214 55.6399 62.8324 55.9976 62.8324 56.5477V57.3207C62.8324 57.8346 62.4157 58.2513 61.9018 58.2513C61.3879 58.2513 60.9712 57.8346 60.9712 57.3207V55.9452C61.3056 55.0357 62.2626 54.4086 63.2699 54.5318C64.3697 54.6529 65.2259 55.5923 65.2259 56.7315Z" fill="#F2BB88"/>
<path d="M63.1257 39.5313V33.7459C63.1257 33.2831 62.7692 32.8796 62.3067 32.8658C61.8281 32.8513 61.4355 33.2351 61.4355 33.7105V39.496C61.4355 39.9587 61.7921 40.3622 62.2546 40.3761C62.7331 40.3904 63.1257 40.0067 63.1257 39.5313Z" fill="#F9F8F9"/>
<path d="M73.7939 34.5823C74.2693 34.5823 74.6529 34.1898 74.6386 33.7111C74.6248 33.2486 74.2213 32.8921 73.7585 32.8921H71.3636C70.8969 32.8921 70.5186 33.2705 70.5186 33.7372V39.5049C70.5186 39.9717 70.8969 40.35 71.3636 40.35H73.7585C74.2213 40.35 74.6248 39.9935 74.6386 39.531C74.653 39.0524 74.2693 38.6599 73.7939 38.6599H72.2087V37.4661H73.5793C74.0421 37.4661 74.4456 37.1096 74.4595 36.6471C74.4739 36.1685 74.0901 35.776 73.6147 35.776H72.2087V34.5823H73.7939Z" fill="#F9F8F9"/>
<path d="M38.4244 32.8654H36.7865C36.3198 32.8654 35.9414 33.2437 35.9414 33.7104V36.3908V36.3952V39.5113C35.9414 39.6292 35.9594 39.7478 36.0056 39.8562C36.1442 40.1822 36.4554 40.3765 36.7865 40.3765H36.7902C36.7902 40.3765 38.3443 40.3695 38.7726 40.3695C40.1025 40.3695 41.1844 39.2876 41.1844 37.9576C41.1844 37.2369 40.865 36.5908 40.3623 36.1485C40.5844 35.769 40.6978 35.3186 40.6516 34.8382C40.5428 33.7091 39.5587 32.8654 38.4244 32.8654ZM38.4554 34.5555C38.7134 34.5555 38.9442 34.7437 38.9693 35.0005C38.998 35.2951 38.7662 35.5442 38.4774 35.5442C38.3884 35.5438 38.0631 35.5457 37.6317 35.5457V34.5555H38.4554ZM38.7726 38.6793C38.56 38.6793 38.0714 38.681 37.6316 38.6827V37.2367C37.6407 37.2357 38.6971 37.2358 38.7726 37.2358C39.1705 37.2358 39.4943 37.5596 39.4943 37.9575C39.4943 38.3554 39.1705 38.6793 38.7726 38.6793Z" fill="#F9F8F9"/>
<path d="M66.7965 32.8654H65.1586C64.6918 32.8654 64.3135 33.2437 64.3135 33.7104V39.5112C64.3135 39.6291 64.3315 39.7477 64.3777 39.8561C64.5163 40.1821 64.8275 40.3764 65.1586 40.3764H65.1623C65.1623 40.3764 66.7163 40.3694 67.1446 40.3694C68.4746 40.3694 69.5565 39.2874 69.5565 37.9575C69.5565 37.2368 69.2371 36.5907 68.7343 36.1483C68.9564 35.7688 69.0697 35.3184 69.0235 34.8381C68.9149 33.7091 67.9308 32.8654 66.7965 32.8654ZM66.8274 34.5555C67.0855 34.5555 67.3162 34.7437 67.3414 35.0005C67.3701 35.2951 67.1383 35.5442 66.8495 35.5442C66.7605 35.5438 66.4352 35.5457 66.0038 35.5457V34.5555H66.8274ZM67.1446 38.6793C66.9321 38.6793 66.4434 38.681 66.0036 38.6827V37.2367C66.0128 37.2357 67.0691 37.2358 67.1446 37.2358C67.5426 37.2358 67.8663 37.5596 67.8663 37.9575C67.8663 38.3554 67.5426 38.6793 67.1446 38.6793Z" fill="#F9F8F9"/>
<path d="M51.619 34.589C52.1561 34.4935 52.69 34.6047 53.1299 34.8948C53.5058 35.1425 54.0228 35.0782 54.295 34.7196C54.5907 34.3298 54.4955 33.7774 54.0956 33.5072C53.3912 33.0313 52.5522 32.8097 51.6929 32.8773C49.7716 33.0284 48.2608 34.6524 48.24 36.5795C48.2173 38.6693 49.9106 40.3764 51.9953 40.3764C52.8914 40.3578 53.8333 40.0294 54.4762 39.2529C54.7762 38.8954 54.7296 38.3623 54.372 38.0624C54.0144 37.7623 53.4814 37.809 53.1815 38.1666C52.9423 38.4412 52.6033 38.6544 51.9953 38.6863C50.7503 38.6863 49.759 37.5789 49.9547 36.2974C50.0859 35.4383 50.7634 34.741 51.619 34.589Z" fill="#F9F8F9"/>
<path d="M25.5737 38.6859C25.041 38.6859 24.5291 38.4776 24.196 38.127C23.8846 37.7993 23.3739 37.7243 23.0201 38.006C22.6345 38.313 22.5934 38.8762 22.919 39.2357C23.5758 39.9605 24.5434 40.3762 25.5737 40.3762C26.8575 40.3762 27.9362 39.5526 28.1388 38.4181C28.2921 37.5597 27.9083 36.4405 26.3717 35.8737C25.7488 35.6439 25.1632 35.3962 24.8904 35.2782C24.7748 35.2282 24.7025 35.1082 24.7196 34.9833C24.7197 34.9826 24.7199 34.9821 24.7199 34.9814C24.7315 34.9009 24.7916 34.7039 25.1004 34.6108C25.8579 34.3825 26.5719 34.9421 26.5943 34.9599C26.9516 35.2554 27.4809 35.2079 27.7797 34.8524C28.08 34.4951 28.0338 33.962 27.6766 33.6617C27.6197 33.6139 26.2633 32.4952 24.6129 32.9925C23.7651 33.248 23.165 33.9179 23.0468 34.7413C22.9355 35.5165 23.2717 36.2624 23.9241 36.6878C24.0551 36.7702 24.8064 37.0878 25.7867 37.4594C25.9642 37.5249 26.5382 37.766 26.4748 38.1211C26.4264 38.3926 26.068 38.6859 25.5737 38.6859Z" fill="#F9F8F9"/>
<path d="M44.9083 38.686C44.3756 38.686 43.8636 38.4777 43.5305 38.1271C43.219 37.7994 42.7084 37.7244 42.3546 38.0061C41.969 38.3131 41.9279 38.8763 42.2535 39.2358C42.9103 39.9606 43.878 40.3763 44.9082 40.3763C46.1919 40.3763 47.2706 39.5527 47.4732 38.4182C47.6264 37.5598 47.2428 36.4406 45.7061 35.8738C45.0832 35.6441 44.4977 35.3963 44.2248 35.2783C44.1092 35.2283 44.0367 35.1083 44.054 34.9834C44.0541 34.9827 44.0542 34.9822 44.0542 34.9815C44.0658 34.9012 44.126 34.704 44.4347 34.6109C45.1914 34.3826 45.9051 34.9412 45.9286 34.9599C46.2858 35.2555 46.8153 35.2081 47.1141 34.8524C47.4144 34.4952 47.3682 33.962 47.0109 33.6617C46.954 33.6139 45.5976 32.4952 43.9472 32.9925C43.0994 33.248 42.4991 33.9179 42.3811 34.7413C42.2697 35.5165 42.606 36.2624 43.2585 36.6878C43.3893 36.7703 44.1407 37.0878 45.1209 37.4594C45.2984 37.5249 45.8724 37.766 45.8091 38.1209C45.7609 38.3927 45.4026 38.686 44.9083 38.686Z" fill="#F9F8F9"/>
<path d="M32.5455 38.5567C32.3716 38.6442 32.1842 38.6875 31.9652 38.6864C31.7314 38.686 31.5288 38.6291 31.346 38.5124C30.9105 38.2342 30.823 38.0014 30.823 37.716V33.746C30.823 33.2832 30.4665 32.8797 30.0039 32.8659C29.5254 32.8514 29.1328 33.2352 29.1328 33.7106V37.716C29.1328 38.6371 29.5714 39.3843 30.436 39.9366C30.7588 40.1416 31.3329 40.3673 31.9671 40.3764C32.4464 40.3764 32.8967 40.272 33.3056 40.0661C34.3128 39.5588 34.8677 38.7226 34.8677 37.7116V33.7459C34.8677 33.2831 34.5112 32.8796 34.0486 32.8658C33.5701 32.8513 33.1775 33.2351 33.1775 33.7105V37.7117C33.1776 37.9722 33.1025 38.2762 32.5455 38.5567Z" fill="#F9F8F9"/>
<path d="M60.4734 35.2231C60.4734 33.923 59.3773 32.8653 58.0298 32.8653H56.4831C56.4828 32.8653 56.4824 32.8653 56.4822 32.8653H56.4813C56.0165 32.8412 55.6362 33.2024 55.6362 33.6677V39.4959C55.6362 39.9586 55.9927 40.3621 56.4553 40.376C56.9338 40.3904 57.3264 40.0066 57.3264 39.5313V38.1949L58.994 40.0897C59.161 40.2796 59.3943 40.3765 59.6288 40.3765C59.8307 40.3765 60.0335 40.3045 60.1955 40.1579C60.5423 39.8441 60.5497 39.299 60.2406 38.9479L58.9009 37.4258C59.8193 37.0863 60.4734 36.2273 60.4734 35.2231ZM58.0298 34.5555C58.4382 34.5555 58.7832 34.8612 58.7832 35.2231C58.7832 35.585 58.4382 35.8909 58.0298 35.8909C57.8644 35.8909 57.5987 35.8919 57.3342 35.8931C57.3326 35.6129 57.3321 35.1799 57.3307 34.5555H58.0298Z" fill="#F9F8F9"/>
</svg>
