<svg width="96" height="97" viewBox="0 0 96 97" fill="none" xmlns="http://www.w3.org/2000/svg">
<rect x="0.000244141" y="0.400024" width="96" height="96" rx="48" fill="white"/>
<path d="M39.339 23.7182L36.1138 31.5837L26.1707 21.6405C30.4278 19.4618 35.7751 20.1544 39.339 23.7182Z" fill="#4BB3A4"/>
<path d="M31.3271 31.7276L43.2148 48.2556L50.4637 41.0067L42.5698 33.1128C42.9805 29.771 41.9024 26.283 39.3371 23.7177L31.3271 31.7276Z" fill="#60D9CE"/>
<path d="M31.3275 31.7277L45.5354 45.9356L40.6058 50.8651L32.7119 42.9712C29.3709 43.3812 25.8829 42.3031 23.3176 39.7377C19.7537 36.1738 19.0616 30.8274 21.2402 26.5699L28.8626 34.1924L31.3275 31.7277Z" fill="#4BB3A4"/>
<path d="M56.6631 73.0818L59.8883 65.2164L69.8314 75.1595C65.5741 77.3382 60.2269 76.6457 56.6631 73.0818Z" fill="#60D9CE"/>
<path d="M64.6711 65.0724L52.7833 48.5443L45.5344 55.7932L53.4283 63.6872C53.0176 67.0289 54.0957 70.517 56.6611 73.0822L64.6711 65.0724Z" fill="#4BB3A4"/>
<path d="M64.6732 65.0728L50.4653 50.8649L55.3949 45.9353L63.2888 53.8292C66.6298 53.4193 70.1178 54.4974 72.6831 57.0627C76.2468 60.6264 76.939 65.9729 74.7604 70.2304L67.1379 62.608L64.6732 65.0728Z" fill="#60D9CE"/>
<path d="M73.2404 23.1589L74.4728 24.3912C76.506 26.4244 76.506 29.7517 74.4728 31.7849L71.4807 34.7769L63.458 29.8478L73.2404 23.1589Z" fill="#FF6126"/>
<path d="M72.0093 21.9262L73.2416 23.1585L65.0059 31.3942L61.6235 24.9182L64.6155 21.9262C66.6488 19.8928 69.976 19.8928 72.0093 21.9262Z" fill="#FF8151"/>
<path d="M66.5519 29.8478L71.4812 34.777L66.5519 39.7061L58.5293 34.777L66.5519 29.8478Z" fill="#A3FDF6"/>
<path d="M61.6242 24.9186L66.5534 29.8478L60.0774 36.3237L56.6951 29.8478L61.6242 24.9186Z" fill="#DBFFFA"/>
<path d="M24.5235 70.3295L25.6062 74.5058L20.6565 75.7433L24.5235 70.3295Z" fill="#000E0F"/>
<path d="M21.8939 70.7938L23.7501 72.6499L20.6565 75.7435L21.8939 70.7938Z" fill="#116371"/>
<path d="M29.6462 65.2072L33.8016 72.4563L25.6068 74.5057L23.7507 72.6495L29.6462 65.2072Z" fill="#FFA07D"/>
<path d="M23.9425 62.5982L28.872 67.5278L23.75 72.6498L21.8938 70.7938L23.9425 62.5982Z" fill="#FFC0A8"/>
<path d="M61.6241 34.7764L66.5533 39.7056L33.8023 72.4567L28.873 67.5274L42.9284 48.8318L61.6241 34.7764Z" fill="#FFD15E"/>
<path d="M61.6217 34.7762L56.6926 29.8472L23.942 62.5979L28.871 67.5269L61.6217 34.7762Z" fill="#FFEA7C"/>
</svg>
